<?xml version="1.0" encoding="utf-8"?>
<!-- Generator: Adobe Illustrator 21.1.0, SVG Export Plug-In . SVG Version: 6.00 Build 0)  -->
<svg version="1.1" id="Layer_1" xmlns="http://www.w3.org/2000/svg" xmlns:xlink="http://www.w3.org/1999/xlink" x="0px" y="0px"
	 viewBox="0 0 500 140" style="enable-background:new 0 0 500 140;" xml:space="preserve">
<style type="text/css">
	.st0{fill:#D2D2D1;}
</style>
<g>
	<path class="st0" d="M39.3,9.3c2.3,0.2,4.8,1,7.6,2.4c2.8,1.4,5.5,3.3,8.1,5.9c2.6,2.6,5,5.4,7.1,8.5c2.1,3,5.5,8,10,14.7
		c4.5,6.8,8.5,11.7,12,14.9c3.5,3.2,6.5,4.2,9,3c1.6-0.7,2.8-2.1,3.7-4.2c0.9-2.1,1.5-5.5,1.7-10l0.7-9.8c0.2-5.2,0.6-9.3,1.2-12.3
		c0.6-3,1.9-5.9,4.1-8.5c2.1-2.6,4.6-4.1,7.4-4.6c2.8-0.4,5.8,0.5,9,2.7c2.3,2,4.1,4.6,5.4,7.8c1.4,3.2,2.4,9.5,3.2,18.9
		c0.8,9.5,1.2,16.8,1.2,22l-1,23.3l-0.7,20.3c-0.5,5.4-1.4,10-2.7,13.9s-3.4,6.9-6.1,9.1c-2.7,2.3-5.9,3.3-9.5,3
		c-2.5,0-5.6-0.8-9.5-2.5c-3.8-1.7-7.2-4.1-10-7.1c-2.8-3-5.8-7.1-8.8-12.2c-3-5.1-5.9-9.8-8.6-14c-2.7-4.3-5.4-7.7-8.1-10.3
		c-2.7-2.6-5.1-3.8-7.1-3.6c-2,0.5-3.8,1.7-5.4,3.9c-1.6,2.1-2.6,4.9-3,8.3c-0.5,3.4-0.8,7.9-1.2,13.5c-0.3,5.6-0.8,10.1-1.5,13.4
		c-0.7,3.3-1.9,6-3.7,8.1c-1.8,2.1-4.7,3.3-8.8,3.4c-4.1,0.1-7.3-1-9.8-3.2c-2.5-1.8-4.3-5.1-5.6-10c-1.2-4.8-2.1-14.1-2.5-27.7
		c-0.5-13.6-0.7-22.8-0.7-27.4c0-4.6,0.1-12.5,0.3-23.5c0-7.9,1-14.2,3-18.9c2-4.7,5-7.8,9-9.3C32.6,9.7,36.1,9.1,39.3,9.3z"/>
	<path class="st0" d="M186.1,128.7c-2.7,0.2-6.3,0.2-10.7,0c-4.4-0.2-8.9-1.4-13.4-3.6c-4.5-2.1-8.5-4.7-11.8-7.6
		c-3.4-2.9-6-6.3-8-10.1c-1.9-3.8-3.3-8.3-4.1-13.4c-0.8-5.1-1.1-9.9-0.8-14.4c0.2-4.3,1.3-8.7,3.2-13.2c1.9-4.5,4.9-8.8,9-13
		c4.1-4.2,8.8-7.3,14.2-9.5c5.4-2.1,10.4-3.3,14.9-3.4c4.5-0.1,7.3-0.2,8.5-0.2c3.2,0.2,6,0.7,8.6,1.4c2.6,0.7,5.9,2,9.8,4.1
		c3.9,2,7.3,4.4,10,7.1s4.9,5.8,6.6,9.3c1.7,3.5,3,7,3.9,10.5c0.9,3.5,1.4,6.8,1.5,10c0.1,3.2-0.1,6.3-0.5,9.5
		c-0.7,3.6-1.9,7.5-3.6,11.7c-1.7,4.2-3.8,7.7-6.4,10.5c-2.6,2.8-5.4,5.2-8.5,7.1c-3,1.9-6.4,3.6-10,4.9
		C195,127.7,190.9,128.5,186.1,128.7z M162.8,85.4c0,2,0.6,4.6,1.7,7.8c1.1,3.2,3.1,6.1,5.9,9c2.8,2.8,7,4.1,12.7,3.9
		c5.2,0,9.6-1.9,13.4-5.8c3.7-3.8,5.7-8.1,5.9-12.7c0.2-4.6,0-8.2-0.7-10.7c-0.9-2-2.1-3.9-3.6-5.6c-1.5-1.7-3.4-3.2-5.8-4.6
		c-2.4-1.4-6-2.1-10.8-2.4c-4.9-0.2-9.1,1.6-12.7,5.4c-2,2-3.6,4.7-4.7,8.1C163,81.4,162.6,83.9,162.8,85.4z"/>
	<path class="st0" d="M283.6,128.7c-2.7,0.2-6.3,0.2-10.7,0c-4.4-0.2-8.9-1.4-13.4-3.6c-4.5-2.1-8.5-4.7-11.8-7.6
		c-3.4-2.9-6-6.3-8-10.1c-1.9-3.8-3.3-8.3-4.1-13.4c-0.8-5.1-1.1-9.9-0.8-14.4c0.2-4.3,1.3-8.7,3.2-13.2c1.9-4.5,4.9-8.8,9-13
		c4.1-4.2,8.8-7.3,14.2-9.5c5.4-2.1,10.4-3.3,14.9-3.4c4.5-0.1,7.3-0.2,8.5-0.2c3.2,0.2,6,0.7,8.6,1.4c2.6,0.7,5.9,2,9.8,4.1
		c3.9,2,7.3,4.4,10,7.1c2.7,2.7,4.9,5.8,6.6,9.3c1.7,3.5,3,7,3.9,10.5c0.9,3.5,1.4,6.8,1.5,10c0.1,3.2-0.1,6.3-0.5,9.5
		c-0.7,3.6-1.9,7.5-3.6,11.7c-1.7,4.2-3.8,7.7-6.4,10.5c-2.6,2.8-5.4,5.2-8.5,7.1c-3,1.9-6.4,3.6-10,4.9
		C292.5,127.7,288.3,128.5,283.6,128.7z M260.2,85.4c0,2,0.6,4.6,1.7,7.8c1.1,3.2,3.1,6.1,5.9,9c2.8,2.8,7,4.1,12.7,3.9
		c5.2,0,9.6-1.9,13.4-5.8c3.7-3.8,5.7-8.1,5.9-12.7c0.2-4.6,0-8.2-0.7-10.7c-0.9-2-2.1-3.9-3.6-5.6c-1.5-1.7-3.4-3.2-5.8-4.6
		c-2.4-1.4-6-2.1-10.8-2.4c-4.9-0.2-9.1,1.6-12.7,5.4c-2,2-3.6,4.7-4.7,8.1C260.5,81.4,260,83.9,260.2,85.4z"/>
	<path class="st0" d="M431.1,132.1c-1.6,0-3.9-0.7-7.1-2c-3.2-1.4-6.3-3.6-9.5-6.8c-3.2-3.2-5.7-6.7-7.6-10.7
		c-1.9-3.9-3.7-8.3-5.4-13.2c-1.7-4.8-3.1-8.2-4.2-10.1c-1.1-1.9-2.1-3.2-3-3.9c-0.9-0.2-2.7-0.1-5.2,0.5c-2.6,0.6-6,0.8-10.3,0.7
		c-4.3-0.1-7.4-0.3-9.3-0.5c-1.9-0.2-3.3,0-4.2,0.7c-0.9,0.7-1.5,1.5-1.9,2.5c-0.3,1-0.5,3-0.3,5.9c0.1,2.9-0.3,6.5-1.2,10.8
		c-0.9,4.1-1.6,7.8-2,11.2c-0.5,3.4-1.4,6.5-2.9,9.5c-1.5,2.9-3.9,4.6-7.3,4.9c-3.4,0.3-6.4-0.8-9.1-3.6c-1.6-1.4-3-3.2-4.2-5.6
		c-1.2-2.4-2-6.1-2.4-11.2c-0.3-5.1-0.6-11.8-0.7-20.1c-0.1-8.3-0.2-15.6-0.2-21.7c0-3.4,0.1-8.7,0.2-16.1
		c0.1-7.3,0.4-13.1,0.8-17.4c0.4-4.3,1.5-8.2,3-11.8c1.6-3.6,3.6-6.4,6.1-8.3c2.5-1.9,5.6-3.4,9.5-4.4c3.8-1,9-1.8,15.4-2.4
		c6.4-0.6,13.1-0.8,20.1-0.8c6.8,0.2,13.3,0.6,19.6,1.2c6.3,0.6,11.3,1.3,14.9,2.2c3.6,0.9,6.6,2.1,9,3.6c2.4,1.5,4.7,3.7,6.9,6.8
		c2.3,3,4,6.7,5.2,10.8c1.2,4.2,1.9,9,1.9,14.4c-0.2,5.2-0.9,9.9-2,14.2c-1.1,4.3-2.7,7.9-4.7,10.8c-2,2.9-3.6,4.9-4.7,5.8
		c-1.1,0.9-2.7,2-4.6,3.2c-1.9,1.2-2.7,2.2-2.2,2.9c0,0.2,0.3,0.8,1,1.7c0.7,0.9,2,3.3,4.1,7.1l5.1,9.5c1.6,3.4,2.8,6.4,3.7,9.1
		c0.9,2.7,1.4,6,1.5,9.8c0.1,3.8-0.7,6.7-2.5,8.6C438.4,131.8,435.4,132.6,431.1,132.1z M397.6,60.4c5-0.2,8.4-0.7,10.3-1.5
		c1.9-0.8,3.4-1.7,4.4-2.7c1-1,1.9-2.3,2.5-3.7c0.7-1.5,1-3.4,1-5.9c-0.2-4.1-1.4-6.9-3.4-8.6c-2-1.7-4.9-2.8-8.6-3.4
		c-3.7-0.6-10.4-1-20.1-1.2c-5.4,0-9.5,0.2-12.3,0.5c-2.8,0.3-4.9,1.1-6.1,2.2c-1.2,1.1-2.1,2.8-2.7,4.9c-0.6,2.1-0.7,4.6-0.5,7.3
		c0,2.5,0.2,4.5,0.7,5.9c0.4,1.5,1.3,2.7,2.5,3.6c1.2,0.9,3.6,1.5,6.9,1.7l14.2,1C388.9,60.6,392.6,60.6,397.6,60.4z"/>
	<path class="st0" d="M454.8,20.1c0.4-3.4,1.7-6.2,3.7-8.5c2-2.3,5.5-3.3,10.3-3.2c4.8,0.1,8.3,1.6,10.3,4.6c2,2.9,3,6.1,3,9.5
		c-0.2,2.3-0.7,4.3-1.4,6.3c-0.7,1.9-1.8,3.6-3.4,4.9c-1.6,1.4-4.1,2.3-7.4,2.9c-3.4,0.6-6.4,0.1-9.1-1.4c-2.7-1.5-4.5-3.6-5.2-6.4
		C454.8,25.9,454.5,23.1,454.8,20.1z M468.6,132.1c-2.9,0.2-5.4-0.9-7.4-3.4c-2-2.5-3.4-6.6-4.2-12.3c-0.8-5.8-1.4-12.2-1.7-19.3
		c-0.3-7.1-0.3-14.3,0.2-21.5l1.4-18.3c0.2-4.3,0.9-7.8,2-10.7c1.1-2.8,2.4-4.2,3.7-4.2l3.4,1.7c1.4,0.9,3.2,1,5.4,0.2
		c2.3-0.8,3.7-1.2,4.4-1.2c0.9,0.5,1.7,2.1,2.5,4.9c0.8,2.8,1.4,6.2,1.9,10.2c0.4,3.9,0.7,9.6,0.8,17.1c0.1,7.4,0.1,14.9-0.2,22.3
		c-0.5,7.2-1,13.6-1.7,19.1c-0.7,5.5-2.1,9.5-4.4,11.8C472.5,130.9,470.4,132.1,468.6,132.1z"/>
</g>
</svg>
