<?xml version="1.0" encoding="utf-8"?>
<!-- Generator: Adobe Illustrator 21.1.0, SVG Export Plug-In . SVG Version: 6.00 Build 0)  -->
<svg version="1.1" id="Layer_1" xmlns="http://www.w3.org/2000/svg" xmlns:xlink="http://www.w3.org/1999/xlink" x="0px" y="0px"
	 viewBox="0 0 287 80" style="enable-background:new 0 0 287 80;" xml:space="preserve">
<style type="text/css">
	.st0{fill:#FFFFFF;}
</style>
<path class="st0" d="M82,80c-26.7,0-53.3,0-80,0C2,53.3,2,26.7,2,0c26.7,0,53.3,0,80,0C82,26.7,82,53.3,82,80z M14.3,16.4
	c0.1,0.3,0.2,0.6,0.3,0.9c2,5.1,4.1,10.3,6.1,15.4c3.9,9.8,7.8,19.6,11.7,29.5c0.7,1.8,0.7,1.8,2.7,1.8c0.4,0,0.7-0.1,0.8-0.6
	c1.6-4.1,3.2-8.2,4.8-12.3c4.1-10.3,8.1-20.6,12.2-30.9c0.5-1.3,1-2.5,1.5-3.8c-0.8,0-1.4,0-2,0c-0.4,0-0.6,0.1-0.8,0.5
	c-1.1,2.8-2.2,5.6-3.3,8.4c-4,10.2-8.1,20.4-12.1,30.6c-0.6,1.5-1.2,3-1.8,4.6c-0.1-0.2-0.1-0.3-0.2-0.3c-2.1-5.4-4.3-10.9-6.4-16.3
	c-2.4-6.1-4.8-12.2-7.2-18.3c-1.1-2.9-2.3-5.8-3.4-8.7c-0.1-0.2-0.3-0.5-0.5-0.5C15.9,16.4,15.1,16.4,14.3,16.4z M38.2,63.9
	c0.8,0,1.4,0,2.1,0c0.4,0,0.6-0.1,0.8-0.5c1.9-4.8,3.8-9.5,5.6-14.3c3.6-9,7.1-18,10.7-27.1c0.7-1.9,1.5-3.7,2.2-5.7
	c-0.8,0-1.6,0-2.3,0c-0.2,0-0.4,0.3-0.5,0.4c-1,2.4-1.9,4.8-2.9,7.2c-3.9,9.8-7.8,19.6-11.6,29.5C40.9,56.9,39.6,60.4,38.2,63.9z
	 M69.8,16.4c-0.8,0-1.5,0-2.1,0c-0.4,0-0.6,0.1-0.7,0.5c-2.2,5.6-4.4,11.2-6.7,16.8c-3.5,8.9-7,17.7-10.5,26.6
	c-0.5,1.2-0.9,2.4-1.4,3.7c0.8,0,1.4,0,2.1,0c0.2,0,0.6-0.2,0.7-0.5c2.3-5.6,4.5-11.3,6.7-17c3.3-8.4,6.7-16.8,10-25.2
	C68.5,19.7,69.2,18.1,69.8,16.4z M64.7,16.4c-0.8,0-1.5,0-2.2,0c-0.2,0-0.5,0.2-0.6,0.4c-1.8,4.4-3.5,8.7-5.2,13.1
	c-4,10.1-8,20.3-12,30.4c-0.5,1.2-0.9,2.3-1.4,3.6c0.7,0,1.3,0,1.8,0c0.5,0,0.8-0.1,1-0.7c2.1-5.3,4.2-10.5,6.2-15.8
	c3.6-9,7.1-18,10.7-27C63.6,19.2,64.1,17.8,64.7,16.4z M19.4,16.4c5.1,12.9,10.2,25.7,15.3,38.7c0.5-1.1,0.9-2,1.3-2.9
	c0.1-0.2,0-0.4-0.1-0.6c-1-2.5-2-5.1-3-7.6c-2.4-6.1-4.8-12.3-7.3-18.4c-1.1-2.9-2.3-5.8-3.4-8.7c-0.1-0.2-0.3-0.5-0.5-0.5
	C21,16.4,20.2,16.4,19.4,16.4z M24.5,16.4c4.3,10.8,8.5,21.5,12.8,32.5c0.4-1,0.7-1.8,1-2.6c0.2-0.5,0.2-0.9,0-1.5
	c-3.5-8.9-7-17.7-10.5-26.6c-0.2-0.6-0.4-1.5-0.8-1.8c-0.5-0.3-1.3-0.1-2-0.1C24.9,16.4,24.8,16.4,24.5,16.4z M39.8,42.3
	c0.4-1,0.8-1.9,1-2.8c0.1-0.4,0.1-0.9,0-1.3c-0.9-2.3-1.8-4.6-2.7-6.9c-1.9-4.8-3.8-9.7-5.8-14.5c-0.1-0.2-0.3-0.4-0.4-0.4
	c-0.7,0-1.5,0-2.3,0C33,25,36.4,33.6,39.8,42.3z"/>
<g>
	<path class="st0" d="M105.9,78L89.6,34.8h6.1l13.4,35.4L122,34.8h5.4L111.7,78H105.9z"/>
	<path class="st0" d="M130.7,78v-6.7c2.2-5.2,6.7-10.9,13.5-17l4.4-3.9c5.6-5.1,8.4-10.1,8.4-15.2c0-3.2-1-5.7-2.9-7.6
		c-1.9-1.8-4.6-2.8-7.9-2.8c-4,0-8.7,1.5-14.1,4.6v-6.7c5.1-2.4,10.1-3.6,15.2-3.6c5.4,0,9.7,1.4,12.9,4.3c3.3,2.9,4.9,6.7,4.9,11.5
		c0,3.4-0.8,6.5-2.5,9.1c-1.6,2.7-4.7,5.9-9.2,9.7l-2.9,2.5c-6.1,5.2-9.7,10.2-10.6,14.9h24.9V78H130.7z"/>
	<path class="st0" d="M178,78V34.8h13.1c4.1,0,7.3,0.9,9.5,2.7c2.2,1.8,3.3,4.5,3.3,8c0,5.8-2.9,9.9-8.7,12.3L209.6,78h-7.5
		l-12.3-18.3h-5.7V78H178z M184.1,55.1h2c7.7,0,11.6-3,11.6-9.1c0-4.5-3.2-6.7-9.7-6.7h-3.9V55.1z"/>
	<path class="st0" d="M215.8,78V34.8H240v4.6h-18v13.9h15.1v4.5H222v15.7h19.3V78H215.8z"/>
	<path class="st0" d="M248.2,78V34.8h14.4c4.3,0,7.7,0.5,10.4,1.4c2.6,1,4.9,2.6,6.8,4.8c3.1,3.6,4.6,8.4,4.6,14.3
		c0,7.2-1.9,12.8-5.7,16.7c-3.8,4-9.1,5.9-16,5.9H248.2z M254.4,73.4h7.9c5.6,0,9.6-1.5,11.9-4.5c2.5-3.2,3.8-7.5,3.8-12.9
		c0-5.1-1.2-9.1-3.7-12c-1.5-1.8-3.3-3-5.4-3.6c-2.1-0.7-5.2-1-9.4-1h-5.1V73.4z"/>
</g>
</svg>
